<svg width="580" height="400" xmlns="http://www.w3.org/2000/svg">
 <!-- Created with Method Draw - http://github.com/duopixel/Method-Draw/ -->

 <g>
  <title>background</title>
  <rect fill="none" id="canvas_background" height="402" width="582" y="-1" x="-1"/>
  <g display="none" overflow="visible" y="0" x="0" height="100%" width="100%" id="canvasGrid">
   <rect fill="url(#gridpattern)" stroke-width="0" y="0" x="0" height="100%" width="100%"/>
  </g>
 </g>
 <g>
  <title>Layer 1</title>
  <!-- Created with Method Draw - http://github.com/duopixel/Method-Draw/ -->
  <g stroke="null" id="svg_17">
   <g stroke="null" transform="matrix(0.41882671760320167,0,0,0.41882671760320167,-1902.9698961555841,-1311.4878730531273) " id="svg_14">
    <title stroke="null" transform="translate(5200.6611328125,0) translate(0,3584.5) ">background</title>
    <rect stroke="null" x="5199.661133" y="3583.5" width="582" height="402" id="svg_12" fill="#fff"/>
    <g stroke="null" id="svg_11" display="none">
     <rect stroke="null" id="svg_15" width="580" height="400" x="5200.661133" y="3584.5" stroke-width="0" fill="url(#gridpattern)"/>
    </g>
   </g>
   <g stroke="null" transform="matrix(0.41882671760320167,0,0,0.41882671760320167,-1902.9698961555841,-1311.4878730531273) " id="svg_16">
    <title stroke="null" transform="translate(5200.6611328125,0) translate(0,3584.5) ">Layer 1</title>
    <path stroke="#000000" fill="none" stroke-width="7.5" d="m5304.223013,3711.99774l74.70717,-74.70717l105.65322,0l74.70718,74.70717l0,105.65322l-74.70718,74.70718l-105.65322,0l-74.70717,-74.70718l0,-105.65322z" id="svg_10" transform="rotate(22.020381927490234 5431.756835937503,3764.8244628906236) "/>
    <path stroke="#000" fill="#000000" stroke-width="3.5" stroke-opacity="null" d="m5454.471173,3861.60017c-9.30369,-4.94745 7.77523,-4.99011 11.69357,-5.33014c10.17635,-0.19074 11.55548,-12.4069 10.50917,-20.18283c-1.4886,-3.18713 -0.03225,-10.10595 -5.27544,-9.07239c-10.47611,-0.48599 -20.83902,-3.09365 -29.95428,-8.2939c-0.55941,8.74086 -4.9529,16.73827 -7.87475,25.00527c-3.84273,4.18475 9.76867,19.12467 0.29434,12.45047c-6.13701,-5.70554 0.04428,5.93498 -7.57543,2.65758c-10.3399,-0.21331 -21.05249,1.63383 -31.15361,-0.84514c-3.39456,-1.42382 -14.02261,0.35205 -6.28017,-4.40582c4.39726,-0.80194 8.24888,3.03994 11.5721,-1.38273c7.86763,3.25259 20.38946,3.27493 23.24615,-6.97558c4.75388,-7.7581 7.66658,-16.45571 7.8441,-25.56941c-5.56701,-4.28744 -9.97667,-9.83102 -12.50859,-16.42798c-5.85492,-9.65082 -16.53981,-14.94303 -25.29971,-21.62852c-11.62303,-7.56904 -25.00599,-16.28458 -27.28322,-31.21388c-2.76868,-11.07507 0.01504,-23.20289 7.86698,-31.60265c5.2955,-7.57902 15.14063,-14.62307 12.88761,-25.02817c-5.72473,-10.18455 -18.10429,1.31794 -23.72611,6.26593c-6.77191,4.79188 -14.05847,16.40062 -23.3033,11.19329c-1.1652,-7.88263 9.29842,-12.82926 11.87324,-20.18265c5.33237,-8.27723 8.48894,-17.89757 12.86198,-26.41583c7.90992,-7.36316 20.9885,-7.40826 28.80542,0.19357c9.9752,7.76702 16.19576,20.046 15.21899,32.81007c0.96171,8.81406 -2.81123,20.29879 5.60109,26.41782c12.15994,6.75922 26.49686,8.38073 38.85668,14.8591c15.45713,7.13689 27.05312,20.01578 40.06186,30.6146c8.00442,7.27225 16.23336,14.32971 23.84336,22.01629c-5.08717,-1.52183 -9.79182,-4.11118 -14.66185,-6.21417c6.30246,8.19715 9.13429,18.28128 10.62659,28.35555c2.45352,10.67749 9.3186,21.11586 5.87439,32.41906c-3.00348,9.39934 -12.5724,-5.80224 -17.25136,-8.46284c-5.34796,-5.04098 -10.63836,-11.28198 -18.39136,-12.152c-1.39913,9.06382 -2.83697,18.4925 -1.24523,27.5717c0.93286,8.04078 16.97829,3.21555 14.65369,9.16837c-13.44164,-1.46676 -26.93731,-0.23063 -40.41157,-0.40626l-1.9953,-0.20578l0,0l-0.00002,0l-0.00001,0z" id="svg_9"/>
    <text stroke="#000000" fill="#000000" stroke-width="0" stroke-opacity="null" fill-opacity="null" x="658.341147" y="345.082654" id="svg_8" font-size="3" font-family="'Trebuchet MS', Gadget, sans-serif" text-anchor="start" xml:space="preserve" transform="matrix(17.86116468826277,0,0,15.711409568786632,-6545.015451399346,-1561.3339108377702) ">MMA              MALLARD</text>
   </g>
  </g>
 </g>
</svg>